<svg xmlns="http://www.w3.org/2000/svg" viewBox="0 0 175 64">
  <title>
    Tiffany Lea
  </title>
  <path fill="#FFF" fill-rule="nonzero" d="M6.2 51.3c3.2 0 6.5-1.6 10-4.8 3.8-3.6 7-8.6 9.5-15 3-7.2 4.8-15.7 5.4-25.4L36 6c7 0 11.3 1.3 12.8 3.9.2.4.5.6.7.6.3 0 .4-.2.4-.5l-.1-.6c-2-3.4-7-5.2-15.2-5.2-1 0-2.2 0-3.4.2l.1-2.9C31.3.4 31 0 30 0c-.8 0-1.2.4-1.3 1.3l-.2 3.2a43.9 43.9 0 00-20.3 6.2C2.7 13.9 0 17.4 0 21.2c0 3 1 5 3 6.2l.7.3c.3 0 .5-.2.5-.4s-.2-.4-.5-.6c-1.5-1-2.3-2.6-2.3-5 0-3.7 3-7 8.7-10a56 56 0 0118.2-5.3C27 22.7 23.7 34.6 18.8 42c-3.5 5.3-7.5 8-11.9 8-1.1 0-2-.2-2.8-.6-.8-.3-1.2-.7-1.3-1 0-.5-.4-.7-1-.7-.4 0-.7.1-1 .3-.1.2-.1.5 0 .8 1.4 1.7 3.1 2.5 5.4 2.5zm32-28.1c.4.1 1-.1 1.6-.8.6-.7.8-1.4.8-2 0-.7-.4-1-1.3-1-.5 0-1 .3-1.3.8a3 3 0 00-.5 1.7c0 .3 0 .6.2.8l.5.5zm-2.6 20c.8 0 1.7-.2 2.6-.9a15.6 15.6 0 005-8c0-.4 0-.5-.2-.5s-.6.4-1 1.2c-1 2.1-2.1 3.9-3.4 5.4-1.3 1.5-2.4 2.2-3.2 2.2-1 0-1.4-.9-1.5-2.6 0-1.9.1-3.5.5-5 .3-1 1-2.3 2-4.2 1-2 1.5-3.4 1.6-3.9.2-.8 0-1.4-.4-1.7-.6-.4-1.2-.3-1.7.5-.6.8-1 1.6-1.4 2.4-1.5 3.5-2.2 7-2.2 10.4 0 2.2.5 3.6 1.5 4.3.5.3 1.1.5 1.8.5zM49 59.6c.4 0 .8-.2 1.1-.6.4-.4.6-.7.6-1 0-.4-.2-.5-.6-.4-2.4.5-4.1-2-5.2-7.4a76 76 0 01-1-19.7 971.5 971.5 0 017.5-4c.6-.4 1-.8 1-1 0-.2-.1-.2-.3-.2a398.8 398.8 0 01-6.3 2.1l-1.7.4c.8-5.4 2.2-9.6 4-12.6 1.5-2.4 2.9-3.6 4.2-3.6.7 0 1 .4 1 1.2 0 .9-.4 1.9-1.4 3a1 1 0 00-.2 1c0 .3.2.3.4 0 1.5-1.8 2.3-3.4 2.3-4.8a3 3 0 00-1.2-2.5c-.7-.5-1.5-.8-2.4-.8a3 3 0 00-2 .6c-3 2.5-5.2 8.9-6.4 19l-2 1.5c-.3.2-.4.6-.4 1.2 0 1 .4 1.5 1.3 1.4l1-.5c-.1 4.8.2 9.8 1 15.1 1.2 8.2 3.1 12.4 5.7 12.6zm7.5 0c.5 0 .9-.2 1.2-.6.3-.4.5-.7.5-1 0-.4-.2-.5-.5-.4-2.4.5-4.2-2-5.3-7.4a76 76 0 01-1-19.7 971.5 971.5 0 017.5-4c.7-.4 1-.8 1-1 0-.2 0-.2-.3-.2s-1.3.3-3 1l-3.2 1.1-1.8.4c.9-5.4 2.2-9.6 4-12.6 1.5-2.4 3-3.6 4.2-3.6.7 0 1 .4 1 1.2 0 .9-.4 1.9-1.3 3a1 1 0 00-.2 1c0 .3.2.3.4 0 1.5-1.8 2.2-3.4 2.2-4.8a3 3 0 00-1.2-2.5c-.7-.5-1.5-.8-2.4-.8a3 3 0 00-1.9.6c-3 2.5-5.2 8.9-6.4 19l-2.1 1.5c-.3.2-.4.6-.4 1.2 0 1 .4 1.5 1.3 1.4l1-.5c-.1 4.8.3 9.8 1 15.1 1.3 8.2 3.2 12.4 5.7 12.6zm1.5-18c1.1 0 2.6-1.2 4.4-3.7a23 23 0 003-5v2a8 8 0 001 3.3 2 2 0 001.8 1.2c1.2 0 2-.5 2.8-1.6l.3-.8c0-.3-.2-.5-.5-.5s-.5.1-.7.5c-.6 1-1.2 1.6-1.6 1.6-.6 0-.9-1.1-.9-3.2l.4-3.4a9 9 0 00.1-2.8c-.1-.5-.5-.7-1-.7-.4 0-.8.1-1 .5-2 4.5-3.5 7.4-4.4 8.6-1.2 1.6-2 2.5-2.8 2.5-.6 0-.9-.7-.9-2v-1.3c.4-2.8 1-5.3 2.1-7.7 1.2-2.7 2.6-4 4-4 1 0 1.9.7 2.6 2.3.1.2.2.4.4.4.5 0 .7-.6.7-1.7l-.1-1c-.4-1.5-1.3-2.2-2.7-2.2-2.1 0-4.2 2.1-6.3 6.5a23.2 23.2 0 00-2.7 9.3c0 2 .7 3 2 3zm24.8 1.2c.6 0 1.2-.4 1.6-1 .5-.8.7-1.4.6-2 0-.1-.2 0-.6.6-.6.7-1 1-1.5 1-.6 0-1-.7-1-2.4 0-2.4.4-4.9 1.2-7.3l1.5-4.2c.8-2.3 1.2-4.1 1.2-5.5 0-2.3-1-3.3-3.3-3-3.3.3-5.9 4-7.8 11-.2.9-.5 2-.7 3.7-1.5-5-3-7.6-4.2-8-.7-.2-1-.1-1 .2v.2c.5.2.9.6 1.2 1.2.2.3.3.8.5 1.6.9 4 1.4 7.2 1.7 9.3.3 2 .7 3.1 1 3.7.2.3.5.4.7.4.3 0 .6-.3 1-.8l.3-1.4c-.2-1.4-.2-2.8-.2-4 0-3.2.4-6.1 1.4-8.8.5-1.3 1.2-2.8 2.2-4.3 1.4-2 2.6-3.1 3.6-3 .7 0 1 .8.9 2.4L81.9 29c-.6 4-1 7-1 9.2 0 2.5.5 3.9 1.3 4.3l.6.2zM87.5 64c2.3 0 4.7-.9 7.1-2.7 4.6-3.3 7.5-8.7 8.9-16.2a41 41 0 015.5-.9c.8 0 1.2-.2 1.2-.5 0-.2-.3-.3-.7-.2l-5.9.6c.2-1.3.2-2.8.2-4.3 0-7.1-.7-12.4-2.1-15.8-.2-.4-.5-.7-1.1-.7-.9 0-1.3.5-1.1 1.3l.4 1.5a191 191 0 01-6.7 14 30.2 30.2 0 00-.5-12c-.6-2.2-1.7-3.3-3-3.3-.8 0-1.8.5-3 1.3a6.7 6.7 0 00-2 2.5c-.2.3-.1.4 0 .4l1.4-1.4c1-.9 1.7-1.3 2.5-1.3 2.1.1 3.2 3.7 3.2 10.6v5.3c.2 1.1.5 1.6 1 1.6.4 0 .7-.1 1-.4.3-.3.5-.6.5-.9.1-1.3.7-3.4 2-6.1 1.2-3.1 2.6-6.2 4-9.3a54.9 54.9 0 012 17.3c-4.3.9-8.2 2.5-11.6 4.8-2.8 1.8-5 3.9-6.5 6a8 8 0 00-1.6 4.5c0 1.3.4 2.4 1.3 3.1 1 .8 2.1 1.2 3.6 1.2zm-.4-1.2c-2 0-3-.9-3-2.8 0-1.3.6-2.8 1.8-4.4A32.8 32.8 0 01102 45.4c-1 7.1-4.3 12.4-10.2 15.8a10 10 0 01-4.8 1.6zm29.3-14.3c.8 0 1.6-.4 2.3-1.1a7 7 0 001.6-3.7l9.5-3.6c2.8-.8 6.3-1.3 10.4-1.3 3.3 0 5.4 1 6.2 3.1.3.7.5 1 .7 1 .2 0 .3-.4.3-1.3 0-1.6-1-2.8-2.7-3.7-1.5-.7-3-1-4.7-1-7.6 0-14 1.6-19.6 5 .5-2.8 1.7-6.4 3.6-10.8a6 6 0 002.4.4c4 0 8-1.7 12.2-4.9a40 40 0 009.5-10.5c2.6-4 4-7.5 4-10.3 0-2.9-1.5-4.3-4.3-4.3-4.8 0-9.9 3.6-15.2 11a98.6 98.6 0 00-9.8 17c-.7-.4-1.2-1-1.7-1.7-.4-.8-.7-1.6-.7-2.3 0-1.4-.1-2-.5-2s-.7.7-.7 2.2c0 1 .4 2 1 3 .7 1 1.4 1.6 2.2 1.7-2 4.2-3 7.5-3.4 9.9l-.7 2.6c-2.2 1.6-3.3 3-3.3 4.3 0 .8.5 1.3 1.4 1.3zm9.8-18c-1 0-1.5-.2-1.7-.3a88.3 88.3 0 0110-16.4c5.4-7.3 10-10.9 13.6-10.9 1.6 0 2.4 1 2.4 2.8 0 2.5-1.2 5.6-3.7 9.5a40 40 0 01-9 10.4 19 19 0 01-11.6 4.8zm28.4 11.3c1.5 0 3-.7 4.4-2.1a15 15 0 003.8-6.5c0-.3 0-.5-.3-.5s-.7.5-1.1 1.4c-2.1 4.6-4.3 6.8-6.5 6.8-1.1 0-2-.6-2.7-1.8-.6-1.2-1-2.8-1-4.8l.2-2.9c.3-2 .8-3.4 1.5-4.5.6-.9 1.1-1.3 1.8-1.3s1.1.5 1.1 1.5c0 .7-.2 1.4-.5 2a8.4 8.4 0 01-2.6 3.3c-.6.3-1 .7-1 1l.3.1.5-.1c1.6-.6 3-2 4.1-4.3.5-1 .8-2 .8-2.8 0-2-.9-3-2.6-3-1.3 0-2.5.7-3.4 2.1-1.2 1.7-1.9 4-2 6.8-.1 3.1.3 5.5 1.3 7.2 1 1.6 2.2 2.4 3.9 2.4zm7-.3c1.3 0 2.7-1.2 4.5-3.7a23 23 0 003-5v2a8 8 0 001 3.3 2 2 0 001.9 1.2c1 0 2-.5 2.7-1.6l.3-.8c0-.3-.2-.5-.5-.5-.2 0-.5.1-.7.5-.6 1-1.1 1.6-1.5 1.6-.6 0-1-1.1-1-3.2l.4-3.4a9 9 0 00.1-2.8c-.1-.5-.4-.7-1-.7-.4 0-.7.1-1 .5-2 4.5-3.4 7.4-4.3 8.6-1.2 1.6-2.2 2.5-2.9 2.5-.6 0-.9-.7-.9-2l.1-1.3c.3-2.8 1-5.3 2-7.7 1.3-2.7 2.6-4 4-4 1 0 2 .7 2.6 2.3.1.2.2.4.4.4.5 0 .7-.6.7-1.7l-.1-1c-.4-1.5-1.3-2.2-2.6-2.2-2.2 0-4.3 2.1-6.3 6.5a23.2 23.2 0 00-2.7 9.3c0 2 .6 3 1.9 3z"/>
</svg>
